<?xml version="1.0" encoding="utf-8"?>
<!-- Generator: Adobe Illustrator 19.1.0, SVG Export Plug-In . SVG Version: 6.00 Build 0)  -->
<svg version="1.1" id="Layer_1" xmlns="http://www.w3.org/2000/svg" xmlns:xlink="http://www.w3.org/1999/xlink" x="0px" y="0px"
	 width="413.665px" height="62.755px" viewBox="0 0 413.665 62.755" enable-background="new 0 0 413.665 62.755"
	 xml:space="preserve">
<path display="none" fill="#034B25" d="M22.831-32.282c38.966,0,70.667,31.701,70.667,70.667s-31.701,70.667-70.667,70.667
	s-70.667-31.701-70.667-70.667S-16.135-32.282,22.831-32.282 M22.831-33.615c-39.764,0-72,32.235-72,72c0,39.765,32.236,72,72,72
	c39.765,0,72-32.235,72-72C94.831-1.38,62.596-33.615,22.831-33.615"/>
<path fill="#034B25" d="M97.681,36.51v-3.933h2.009v-2.528h-2.009v-2.828h-2.85v9.265c0,3.047,1.728,5.012,4.989,4.666v-2.59
	C98.393,38.647,97.681,38.064,97.681,36.51 M107.27,29.771c-0.973,0-1.837,0.324-2.548,0.864v-5.529h-2.873v16.069h2.873v-6.502
	c0-1.252,0.885-2.118,2.159-2.118c1.857,0,2.074,1.471,2.074,2.118v6.502h2.851v-6.502C111.806,31.735,109.991,29.771,107.27,29.771
	 M119.342,38.928c-0.971,0-1.815-0.433-2.377-1.188l7.862-3.304c-0.54-2.98-2.787-4.665-5.464-4.665
	c-3.154,0-5.702,2.634-5.702,5.852c0,3.217,2.548,5.812,5.702,5.812c2.764,0,4.73-1.535,5.379-3.803h-3.045
	C121.221,38.516,120.27,38.928,119.342,38.928 M119.342,32.275c0.907,0,1.684,0.367,2.203,0.993l-5.227,2.204
	C116.383,33.572,117.7,32.275,119.342,32.275"/>
<path fill="#3C2813" d="M373.57,29.875v10.415h2.707v-8.139h1.907v-2.399h-1.907c0.022-1.455,0.717-1.987,2.009-1.884v-2.544
	C375.252,24.977,373.57,27.067,373.57,29.875 M386.71,35.881c0,1.167-0.861,2.009-2.049,2.009c-1.785,0-1.989-1.416-1.989-2.009
	v-6.17h-2.707v6.088c0,2.768,1.743,4.714,4.695,4.714c2.87,0,4.754-2.028,4.754-4.714v-6.088h-2.705V35.881z M396.365,29.444
	c-2.87,0-4.756,2.03-4.756,4.717v6.108h2.707v-6.171c0-1.189,0.86-2.008,2.049-2.008c1.783,0,1.989,1.413,1.989,2.008v6.171h2.707
	v-6.108C401.061,31.392,399.317,29.444,396.365,29.444 M410.959,25.017v5.698c-0.82-0.84-1.842-1.229-3.095-1.229
	c-2.767,0-5.041,2.478-5.041,5.515c0,3.053,2.233,5.513,5.429,5.513c3.179,0,5.413-2.46,5.413-5.513v-9.984H410.959z
	 M408.252,37.992c-1.495,0-2.703-1.291-2.703-2.971c0-1.743,1.208-3.034,2.703-3.034c1.497,0,2.707,1.353,2.707,3.034
	C410.959,36.661,409.749,37.992,408.252,37.992"/>
<path fill="#3C2813" d="M271.642,32.504v-6.671h3.407v-4.287h-3.407v-4.798h-4.838v15.717c0,5.167,2.931,8.502,8.465,7.916v-4.396
	C272.85,36.13,271.642,35.14,271.642,32.504 M227.603,40.414h4.835v-18.87h-4.835V40.414z M258.086,40.414h4.835v-18.87h-4.835
	V40.414z M245.298,21.072c-5.129,0-8.501,3.626-8.501,8.425v10.917h4.839V29.388c0-2.127,1.537-3.593,3.662-3.593
	c3.188,0,3.555,2.531,3.555,3.593v11.026h4.835V29.497C253.688,24.552,250.575,21.072,245.298,21.072 M278.859,40.414h4.835v-18.87
	h-4.835V40.414z M339.093,35.615l-4.692-14.07h-5.053l7.144,18.868h5.203l7.109-18.868h-4.984L339.093,35.615z M359.026,36.606
	c-1.651,0-3.08-0.732-4.033-2.016l13.338-5.605c-0.915-5.055-4.725-7.912-9.271-7.912c-5.349,0-9.674,4.469-9.674,9.928
	c0,5.459,4.325,9.857,9.674,9.857c4.692,0,8.026-2.602,9.125-6.45h-5.167C362.211,35.909,360.601,36.606,359.026,36.606
	 M359.026,25.32c1.535,0,2.857,0.623,3.735,1.687l-8.867,3.735C354.005,27.52,356.239,25.32,359.026,25.32 M314.947,32.504v-6.671
	h3.409v-4.287h-3.409v-4.798h-4.835v15.717c0,5.167,2.929,8.502,8.463,7.916v-4.396C316.157,36.13,314.947,35.14,314.947,32.504
	 M322.166,40.414h4.836v-18.87h-4.836V40.414z M296.812,21.072c-5.716,0-9.711,4.469-9.711,9.928c0,5.422,4.07,9.822,9.051,9.822
	c2.272,0,4.324-0.809,5.752-2.385v1.977h4.58V31C306.485,25.541,302.49,21.072,296.812,21.072 M296.812,36.349
	c-2.675,0-4.835-2.308-4.835-5.313c0-3.114,2.16-5.422,4.835-5.422c2.674,0,4.837,2.419,4.837,5.422
	C301.649,33.966,299.485,36.349,296.812,36.349"/>
<path fill="#028142" d="M138.774,22.203c-5.692,0.07-9.615,4.572-9.547,10.009c0.068,5.4,4.173,9.729,9.135,9.668
	c2.116-0.028,4.042-0.781,5.449-2.186l0.011,0.839c0.04,3.357-1.463,5.602-4.857,5.644c-0.692,0.008-1.557-0.145-2.315-0.507
	l0.061,4.785c0.741,0.148,1.515,0.22,2.311,0.21c6.02-0.076,9.693-4.025,9.616-10.265l-0.106-8.429
	C148.464,26.534,144.431,22.131,138.774,22.203 M138.965,37.42c-2.664,0.031-4.846-2.242-4.883-5.234
	c-0.037-3.101,2.086-5.426,4.749-5.459c2.664-0.034,4.849,2.346,4.885,5.339C143.752,34.986,141.628,37.385,138.965,37.42
	 M152.307,30.429l0.135,10.872l4.818-0.06l-0.136-10.875c-0.033-2.663,1.99-4.333,5.061-3.823l-0.057-4.524
	C155.879,21.33,152.24,25.099,152.307,30.429 M215.11,21.248c-5.11,0.065-8.42,3.719-8.361,8.5l0.134,10.875l4.818-0.061
	l-0.139-10.984c-0.026-2.117,1.489-3.595,3.606-3.621c3.174-0.041,3.57,2.472,3.584,3.53l0.137,10.985l4.818-0.061l-0.134-10.875
	C223.509,24.61,220.365,21.183,215.11,21.248 M173.257,21.771c-5.327,0.066-9.578,4.572-9.511,10.009
	c0.068,5.437,4.429,9.764,9.759,9.696c4.668-0.057,7.958-2.69,9.004-6.536l-5.146,0.064c-0.783,1.507-2.381,2.221-3.949,2.24
	c-1.643,0.02-3.076-0.691-4.04-1.957l13.214-5.749C181.612,24.514,177.781,21.715,173.257,21.771 M168.231,31.468
	c0.071-3.212,2.271-5.43,5.043-5.464c1.532-0.019,2.853,0.585,3.742,1.632L168.231,31.468z M194.384,21.508
	c-5.327,0.069-9.578,4.571-9.51,10.009c0.068,5.437,4.428,9.761,9.755,9.695c4.671-0.057,7.96-2.691,9.008-6.536l-5.146,0.065
	c-0.784,1.506-2.381,2.22-3.951,2.239c-1.641,0.022-3.073-0.691-4.039-1.957l13.214-5.749
	C202.74,24.249,198.909,21.451,194.384,21.508 M189.359,31.204c0.069-3.212,2.269-5.429,5.041-5.463
	c1.532-0.019,2.853,0.584,3.744,1.632L189.359,31.204z"/>
<path fill="#6E9D76" d="M215.109,21.249c-4.808,0.06-8.022,3.301-8.334,7.666c1.726-0.365,3.468-0.755,5.223-1.172
	c0.591-1.089,1.743-1.768,3.17-1.786c0.877-0.012,1.543,0.173,2.047,0.469c1.716-0.458,3.441-0.942,5.178-1.454
	C221.025,22.629,218.508,21.207,215.109,21.249 M194.382,21.508c-5.327,0.068-9.576,4.571-9.509,10.009
	c0.004,0.268,0.019,0.533,0.044,0.795c5.663-0.573,11.586-1.405,17.715-2.565l1.082-0.473
	C202.74,24.249,198.909,21.451,194.382,21.508 M189.359,31.204c0.069-3.212,2.267-5.429,5.04-5.463
	c1.533-0.019,2.855,0.584,3.744,1.632L189.359,31.204z M152.306,30.429l0.032,2.607c1.56,0.091,3.167,0.164,4.822,0.22l-0.036-2.889
	c-0.035-2.663,1.988-4.333,5.061-3.823l-0.057-4.524C155.88,21.33,152.241,25.099,152.306,30.429 M173.258,21.771
	c-5.329,0.066-9.58,4.572-9.511,10.009c0.007,0.542,0.058,1.072,0.147,1.588c3.344,0.001,6.848-0.08,10.49-0.262l8.203-3.568
	C181.613,24.514,177.781,21.715,173.258,21.771 M168.232,31.468c0.069-3.212,2.268-5.43,5.041-5.464
	c1.532-0.019,2.855,0.585,3.744,1.632L168.232,31.468z M138.775,22.203c-5.009,0.061-8.647,3.556-9.401,8.096
	c1.397,0.267,2.997,0.549,4.785,0.828c0.396-2.557,2.323-4.37,4.673-4.399c2.664-0.034,4.847,2.346,4.885,5.339
	c0.003,0.096-0.005,0.19-0.01,0.286c1.54,0.157,3.154,0.302,4.836,0.43l-0.01-0.812C148.462,26.534,144.431,22.131,138.775,22.203"
	/>
<path fill="#028142" d="M71.095,7.468c13.271,10.346,15.642,29.489,5.297,42.76c-7.136,9.15-18.455,13.116-29.148,11.303
	c11.956,3.444,25.331-0.444,33.447-10.856c10.655-13.669,8.214-33.389-5.455-44.045c-8.83-6.885-20.187-8.295-29.993-4.749
	C53.949-0.208,63.487,1.536,71.095,7.468"/>
<path fill="#034B25" d="M53.805,62.282c0,0,21.042-0.394,27.618-20.517c0,0,1.315,1.446,3.814-1.053
	C85.237,40.712,79.056,62.808,53.805,62.282"/>
<path fill="#028142" d="M51.641,6.654c-5.888,0-11.31,1.988-15.64,5.325c3.814-2.771,8.503-4.408,13.578-4.408
	c12.777,0,23.135,10.358,23.135,23.135c0,12.778-10.357,23.136-23.135,23.136c-12.779,0-23.137-10.358-23.137-23.136
	c0-3.052,0.598-5.965,1.672-8.634c-1.367,3.137-2.13,6.598-2.13,10.238c0,14.169,11.487,25.656,25.656,25.656
	c14.168,0,25.654-11.487,25.654-25.656C77.295,18.141,65.809,6.654,51.641,6.654"/>
<path fill="#034B25" d="M26.711,37.424c0,0,5.655,22.622,28.803,19.729c0,0-6.444-0.264-2.762-2.5
	C56.435,52.418,36.838,60.966,26.711,37.424"/>
<path fill="#6E9D76" d="M53.805,0.467c0,0,19.465-3.025,30.118,17.755c0,0-7.364-13.809-20.386-16.44c0,0,15.65,4.867,18.544,21.044
	C82.081,22.826,77.084,2.703,53.805,0.467"/>
<path fill="#6E9D76" d="M47.293,7.241c0,0,8.386-2.269,17.953,3.649c9.567,5.919,12.923,17.263,11.146,26.633
	c0,0,2.663-16.572-11.146-25.942c0,0-4.538-2.663-7.891-3.65c0,0,19.629,6.905,15.486,26.238c0,0,2.368-15.092-10.949-23.279
	C61.893,10.89,57.355,6.846,47.293,7.241"/>
<path fill="#034B25" d="M34.963,39.693c0,0-2.367-3.945-2.465-8.779c0,0-0.494,1.381-1.184,0.099
	C31.315,31.013,32.103,36.833,34.963,39.693"/>
<path fill="#034B25" d="M56.565,14.046c0,0-2.562-2.071-7.989-2.071c0,0,0.69,0.592-0.789,1.184
	C47.787,13.159,52.719,12.271,56.565,14.046"/>
<path fill="#028142" d="M31.511,30.125c-0.05-1.656,0.096-3.167,0.387-4.546l-0.417-0.387c-0.296,1.274-0.456,2.599-0.456,3.962
	c0,5.737,2.767,10.828,7.045,14.009c-3.23-3.168-5.235-7.579-5.235-12.458c0-1.326,0.152-2.616,0.434-3.857l-1.089-1.008
	C31.504,28.343,31.511,30.125,31.511,30.125"/>
<path fill="#028142" d="M50.283,13.255c3.9,0,7.5,1.281,10.405,3.442c-3.147-3.087-7.458-4.993-12.217-4.993
	c-6.275,0-11.775,3.316-14.851,8.29l0.31,0.403c3.31-5.471,8.826-7.435,8.826-7.435c-4.216,2.107-6.849,5.027-8.496,7.862
	l0.903,1.174C38.178,16.774,43.818,13.255,50.283,13.255"/>
<path fill="#6E9D76" d="M42.757,12.961c0,0-5.517,1.964-8.825,7.436l0.329,0.426C35.908,17.989,38.541,15.068,42.757,12.961"/>
<path fill="#6E9D76" d="M31.511,30.125c0,0-0.007-1.782,0.668-4.285l-0.281-0.261C31.607,26.958,31.461,28.469,31.511,30.125"/>
<path fill="#028142" d="M0,10.639c0,0,3.397,11.764,16.634,8.43C16.634,19.069,14.891,8.241,0,10.639 M16.007,18.741l-0.903,0.146
	c-1.229-3.228-10.679-5.749-10.679-5.749C14.615,14.707,16.007,18.741,16.007,18.741"/>
<path fill="#6E9D76" d="M0.653,11.125c0,0,0.589,3.692,6.005,7.101c0,0-4.161-2.645-5.426-6.764c0,0,6.302-0.553,8.869,0.322
	C10.102,11.784,4.203,9.707,0.653,11.125"/>
<path fill="#034B25" d="M7.892,18.62c0,0,4.125,0.863,5.598,0.535c0.755-0.168,1.377-0.36,0.639-1.016c0,0-2.959-2.413-6.552-3.32
	C7.577,14.819,11.388,17.856,7.892,18.62"/>
<path fill="#034B25" d="M9.552,13.934c0,0,4.268,1.287,6.233,3.828c0,0-1.032-3.293-4.004-5.146
	C11.781,12.617,12.132,13.853,9.552,13.934"/>
<path fill="#028142" d="M16.38,8.407c0,0-0.23,19.405,21.382,20.404C37.763,28.81,40.071,11.581,16.38,8.407 M21.95,14.225
	c14.747,7.042,15.011,13.802,15.011,13.802l-1.436-0.193C35.136,22.373,21.95,14.225,21.95,14.225"/>
<path fill="#6E9D76" d="M16.702,9.007c0,0,0.352,7.397,5.023,12.813c0,0-4.45-6.587-4.509-12.244c0,0,5.278-0.174,12.791,4.048
	C30.007,13.624,22.32,9.074,16.702,9.007"/>
<path fill="#034B25" d="M28.328,19.23c0,0,7.169,5.904,6.71,8.755c0,0-5.938-0.474-10.394-3.795
	C24.645,24.19,30.85,25.158,28.328,19.23"/>
<path fill="#034B25" d="M32.222,15.263c0,0,5.537,5.509,5.245,12.536c0,0-1.163-5.306-7.443-9.391
	C30.024,18.408,33.302,18.48,32.222,15.263"/>
<path fill="#028142" d="M40.283,8.124c0,0-7.897,27.379,19.083,37.655l-1.449-1.155c-2.655-12.683-12.844-26.245-12.844-26.245
	c11.648,9.808,14.293,27.4,14.293,27.4S66.608,23.389,40.283,8.124"/>
<path fill="#6E9D76" d="M40.79,8.958c0,0-2.712,10.06,1.777,21.435c0,0-3.701-11.426-1.479-19.872c0,0,10.104,6.465,15.362,14.429
	C56.451,24.95,51.459,14.992,40.79,8.958"/>
<path fill="#034B25" d="M51.885,30.78c0,0,4.771,8.094,5.416,13.488c0,0-6.76-2.134-12.477-9.572
	C44.823,34.696,51.51,37.229,51.885,30.78"/>
<path fill="#034B25" d="M54.387,29.729c0,0,3.835,7.364,4.845,13.822c0,0,0.788-0.051,0.676-4.887
	c-0.116-4.836-1.843-10.162-1.843-10.162S57.437,32.597,54.387,29.729"/>
<rect x="-49.169" y="-33.615" fill="none" width="144" height="144"/>
<circle fill="#3C2813" cx="230.02" cy="15.838" r="2.417"/>
<circle fill="#3C2813" cx="260.503" cy="15.838" r="2.417"/>
<circle fill="#3C2813" cx="281.277" cy="15.838" r="2.417"/>
<circle fill="#3C2813" cx="324.584" cy="15.838" r="2.417"/>
</svg>
